<svg width="174" height="27" viewBox="0 0 174 27" fill="none" xmlns="http://www.w3.org/2000/svg">
<path d="M16.76 10.384C16.248 9.44533 15.544 8.73067 14.648 8.24C13.752 7.74933 12.7067 7.504 11.512 7.504C10.1893 7.504 9.016 7.80267 7.992 8.4C6.968 8.99733 6.168 9.85067 5.592 10.96C5.016 12.0693 4.728 13.3493 4.728 14.8C4.728 16.2933 5.016 17.5947 5.592 18.704C6.18933 19.8133 7.01067 20.6667 8.056 21.264C9.10133 21.8613 10.3173 22.16 11.704 22.16C13.4107 22.16 14.808 21.712 15.896 20.816C16.984 19.8987 17.6987 18.6293 18.04 17.008H10.36V13.584H22.456V17.488C22.1573 19.0453 21.5173 20.4853 20.536 21.808C19.5547 23.1307 18.2853 24.1973 16.728 25.008C15.192 25.7973 13.464 26.192 11.544 26.192C9.38933 26.192 7.43733 25.712 5.688 24.752C3.96 23.7707 2.59467 22.416 1.592 20.688C0.610667 18.96 0.12 16.9973 0.12 14.8C0.12 12.6027 0.610667 10.64 1.592 8.912C2.59467 7.16267 3.96 5.808 5.688 4.848C7.43733 3.86667 9.37867 3.376 11.512 3.376C14.0293 3.376 16.216 3.99467 18.072 5.232C19.928 6.448 21.208 8.16533 21.912 10.384H16.76ZM30.2505 2.32V26H25.7705V2.32H30.2505ZM42.5488 26.288C40.8421 26.288 39.3061 25.9147 37.9408 25.168C36.5754 24.4 35.4981 23.3227 34.7088 21.936C33.9408 20.5493 33.5568 18.9493 33.5568 17.136C33.5568 15.3227 33.9514 13.7227 34.7408 12.336C35.5514 10.9493 36.6501 9.88267 38.0368 9.136C39.4234 8.368 40.9701 7.984 42.6768 7.984C44.3834 7.984 45.9301 8.368 47.3168 9.136C48.7034 9.88267 49.7914 10.9493 50.5808 12.336C51.3914 13.7227 51.7968 15.3227 51.7968 17.136C51.7968 18.9493 51.3808 20.5493 50.5487 21.936C49.7381 23.3227 48.6288 24.4 47.2208 25.168C45.8341 25.9147 44.2768 26.288 42.5488 26.288ZM42.5488 22.384C43.3594 22.384 44.1168 22.192 44.8208 21.808C45.5461 21.4027 46.1221 20.8053 46.5488 20.016C46.9754 19.2267 47.1888 18.2667 47.1888 17.136C47.1888 15.4507 46.7408 14.16 45.8448 13.264C44.9701 12.3467 43.8928 11.888 42.6128 11.888C41.3328 11.888 40.2554 12.3467 39.3808 13.264C38.5274 14.16 38.1008 15.4507 38.1008 17.136C38.1008 18.8213 38.5168 20.1227 39.3488 21.04C40.2021 21.936 41.2688 22.384 42.5488 22.384ZM59.563 11.024C60.139 10.0853 60.8857 9.34933 61.803 8.816C62.7417 8.28267 63.8083 8.016 65.003 8.016V12.72H63.819C62.411 12.72 61.3443 13.0507 60.619 13.712C59.915 14.3733 59.563 15.5253 59.563 17.168V26H55.083V8.272H59.563V11.024ZM70.2925 6.16C69.5032 6.16 68.8418 5.91467 68.3085 5.424C67.7965 4.912 67.5405 4.28267 67.5405 3.536C67.5405 2.78933 67.7965 2.17067 68.3085 1.68C68.8418 1.168 69.5032 0.911999 70.2925 0.911999C71.0818 0.911999 71.7325 1.168 72.2445 1.68C72.7778 2.17067 73.0445 2.78933 73.0445 3.536C73.0445 4.28267 72.7778 4.912 72.2445 5.424C71.7325 5.91467 71.0818 6.16 70.2925 6.16ZM72.5005 8.272V26H68.0205V8.272H72.5005ZM75.7747 17.072C75.7747 15.28 76.1267 13.6907 76.8307 12.304C77.5561 10.9173 78.5268 9.85067 79.7428 9.104C80.9801 8.35733 82.3561 7.984 83.8708 7.984C85.1934 7.984 86.3454 8.25067 87.3268 8.784C88.3294 9.31733 89.1294 9.98933 89.7268 10.8V8.272H94.2388V26H89.7268V23.408C89.1508 24.24 88.3508 24.9333 87.3268 25.488C86.3241 26.0213 85.1614 26.288 83.8388 26.288C82.3454 26.288 80.9801 25.904 79.7428 25.136C78.5268 24.368 77.5561 23.2907 76.8307 21.904C76.1267 20.496 75.7747 18.8853 75.7747 17.072ZM89.7268 17.136C89.7268 16.048 89.5134 15.12 89.0868 14.352C88.6601 13.5627 88.0841 12.9653 87.3588 12.56C86.6334 12.1333 85.8548 11.92 85.0228 11.92C84.1908 11.92 83.4228 12.1227 82.7188 12.528C82.0148 12.9333 81.4388 13.5307 80.9908 14.32C80.5641 15.088 80.3508 16.0053 80.3508 17.072C80.3508 18.1387 80.5641 19.0773 80.9908 19.888C81.4388 20.6773 82.0148 21.2853 82.7188 21.712C83.4441 22.1387 84.2121 22.352 85.0228 22.352C85.8548 22.352 86.6334 22.1493 87.3588 21.744C88.0841 21.3173 88.6601 20.72 89.0868 19.952C89.5134 19.1627 89.7268 18.224 89.7268 17.136ZM126.303 3.664L118.111 26H112.671L104.479 3.664H109.279L115.423 21.424L121.535 3.664H126.303ZM131.261 6.16C130.472 6.16 129.811 5.91467 129.277 5.424C128.765 4.912 128.509 4.28267 128.509 3.536C128.509 2.78933 128.765 2.17067 129.277 1.68C129.811 1.168 130.472 0.911999 131.261 0.911999C132.051 0.911999 132.701 1.168 133.213 1.68C133.747 2.17067 134.013 2.78933 134.013 3.536C134.013 4.28267 133.747 4.912 133.213 5.424C132.701 5.91467 132.051 6.16 131.261 6.16ZM133.469 8.272V26H128.989V8.272H133.469ZM142.376 2.32V26H137.896V2.32H142.376ZM151.282 2.32V26H146.802V2.32H151.282ZM154.556 17.072C154.556 15.28 154.908 13.6907 155.612 12.304C156.337 10.9173 157.308 9.85067 158.524 9.104C159.761 8.35733 161.137 7.984 162.652 7.984C163.975 7.984 165.127 8.25067 166.108 8.784C167.111 9.31733 167.911 9.98933 168.508 10.8V8.272H173.02V26H168.508V23.408C167.932 24.24 167.132 24.9333 166.108 25.488C165.105 26.0213 163.943 26.288 162.62 26.288C161.127 26.288 159.761 25.904 158.524 25.136C157.308 24.368 156.337 23.2907 155.612 21.904C154.908 20.496 154.556 18.8853 154.556 17.072ZM168.508 17.136C168.508 16.048 168.295 15.12 167.868 14.352C167.441 13.5627 166.865 12.9653 166.14 12.56C165.415 12.1333 164.636 11.92 163.804 11.92C162.972 11.92 162.204 12.1227 161.5 12.528C160.796 12.9333 160.22 13.5307 159.772 14.32C159.345 15.088 159.132 16.0053 159.132 17.072C159.132 18.1387 159.345 19.0773 159.772 19.888C160.22 20.6773 160.796 21.2853 161.5 21.712C162.225 22.1387 162.993 22.352 163.804 22.352C164.636 22.352 165.415 22.1493 166.14 21.744C166.865 21.3173 167.441 20.72 167.868 19.952C168.295 19.1627 168.508 18.224 168.508 17.136Z" fill="black"/>
</svg>
