<svg xmlns="http://www.w3.org/2000/svg" xmlns:xlink="http://www.w3.org/1999/xlink" id="Layer_1" x="0px" y="0px" width="200px" height="70px" viewBox="0 0 200 70" xml:space="preserve"> <g id="XMLID_1_"> <path id="XMLID_2_" fill="#FFFFFF" d="M13.963,42.985c-0.333-0.25-0.562-0.562-0.687-0.937L8.842,29.06 c-0.062-0.188-0.093-0.364-0.093-0.531c0-0.396,0.135-0.729,0.406-1c0.27-0.27,0.604-0.406,0.999-0.406 c0.292,0,0.557,0.078,0.796,0.234c0.239,0.156,0.4,0.359,0.484,0.609l3.653,12.021l3.622-11.741 c0.104-0.333,0.296-0.604,0.578-0.812c0.281-0.208,0.598-0.312,0.952-0.312s0.671,0.104,0.953,0.312 c0.281,0.208,0.473,0.479,0.578,0.812l3.622,11.741l3.653-12.021c0.083-0.25,0.245-0.453,0.484-0.609 c0.239-0.156,0.504-0.234,0.796-0.234c0.396,0,0.729,0.136,1,0.406c0.27,0.271,0.406,0.604,0.406,1 c0,0.167-0.031,0.343-0.094,0.531l-4.434,12.989c-0.125,0.375-0.354,0.687-0.687,0.937c-0.333,0.25-0.708,0.375-1.124,0.375 c-0.417,0-0.792-0.125-1.125-0.375s-0.573-0.572-0.718-0.968l-3.31-10.335l-3.31,10.335c-0.146,0.396-0.386,0.718-0.718,0.968 c-0.333,0.25-0.708,0.375-1.124,0.375C14.671,43.36,14.296,43.235,13.963,42.985z"></path> <path id="XMLID_7_" fill="#FFFFFF" d="M37.663,42.486c-1.208-0.688-2.139-1.66-2.794-2.92c-0.656-1.259-0.984-2.701-0.984-4.324 c0-1.624,0.328-3.065,0.984-4.325c0.656-1.259,1.587-2.233,2.794-2.919c1.207-0.687,2.612-1.031,4.215-1.031 c1.582,0,2.977,0.344,4.184,1.031c1.207,0.687,2.144,1.66,2.81,2.919c0.666,1.26,1,2.701,1,4.325c0,1.623-0.333,3.065-1,4.324 c-0.667,1.26-1.603,2.232-2.81,2.92c-1.208,0.687-2.603,1.03-4.184,1.03C40.275,43.517,38.87,43.173,37.663,42.486z M44.329,40.331 c0.781-0.395,1.426-1.02,1.936-1.873c0.51-0.854,0.765-1.936,0.765-3.247c0-1.291-0.255-2.363-0.765-3.216 c-0.51-0.854-1.155-1.473-1.936-1.858c-0.781-0.385-1.598-0.578-2.451-0.578c-0.874,0-1.702,0.193-2.482,0.578 c-0.78,0.385-1.42,1.004-1.92,1.858c-0.5,0.854-0.749,1.926-0.749,3.216c0,1.312,0.25,2.394,0.749,3.247 c0.5,0.854,1.14,1.479,1.92,1.873c0.781,0.396,1.608,0.594,2.482,0.594C42.731,40.925,43.548,40.728,44.329,40.331z"></path> <path id="XMLID_10_" fill="#FFFFFF" d="M54.242,42.954c-0.271-0.271-0.406-0.604-0.406-0.999V28.56 c0-0.396,0.135-0.734,0.406-1.015c0.271-0.281,0.604-0.421,0.999-0.421s0.734,0.141,1.015,0.421 c0.281,0.281,0.421,0.62,0.421,1.015v1.28c0.583-0.832,1.285-1.519,2.108-2.061c0.822-0.541,1.889-0.812,3.2-0.812 c1.166,0,2.165,0.312,2.998,0.937c0.833,0.625,1.426,1.384,1.78,2.279c1.291-2.144,3.206-3.216,5.745-3.216 c1.166,0,2.139,0.292,2.92,0.875c0.78,0.583,1.358,1.333,1.733,2.248c0.375,0.917,0.562,1.874,0.562,2.873v8.993 c0,0.396-0.141,0.729-0.422,0.999c-0.281,0.271-0.62,0.406-1.015,0.406c-0.396,0-0.729-0.136-0.999-0.406 c-0.271-0.271-0.406-0.604-0.406-0.999v-8.431c0-1.353-0.239-2.347-0.718-2.982c-0.479-0.635-1.301-0.952-2.467-0.952 c-1.062,0-1.941,0.276-2.639,0.828c-0.698,0.552-1.317,1.275-1.858,2.17v9.367c0,0.396-0.14,0.729-0.421,0.999 c-0.281,0.271-0.62,0.406-1.015,0.406c-0.396,0-0.729-0.136-1-0.406s-0.406-0.604-0.406-0.999v-8.431 c0-1.353-0.239-2.347-0.718-2.982c-0.479-0.635-1.301-0.952-2.466-0.952c-1.062,0-1.941,0.276-2.639,0.828 c-0.698,0.552-1.317,1.275-1.858,2.17v9.367c0,0.396-0.141,0.729-0.421,0.999c-0.281,0.271-0.62,0.406-1.015,0.406 S54.513,43.225,54.242,42.954z"></path> <path id="XMLID_12_" fill="#FFFFFF" d="M83.671,41.347c-1.426-1.447-2.139-3.482-2.139-6.104c0-1.478,0.271-2.842,0.812-4.091 c0.541-1.249,1.374-2.258,2.498-3.029c1.124-0.77,2.508-1.155,4.153-1.155c1.54,0,2.873,0.359,3.997,1.078 c1.124,0.718,1.978,1.676,2.561,2.873c0.583,1.197,0.874,2.503,0.874,3.918c0,0.396-0.13,0.729-0.39,0.999 s-0.609,0.406-1.046,0.406H84.405c0.166,1.457,0.707,2.592,1.624,3.403c0.916,0.812,2.196,1.218,3.84,1.218 c0.875,0,1.64-0.083,2.295-0.25c0.655-0.166,1.295-0.405,1.92-0.718c0.167-0.083,0.354-0.125,0.562-0.125 c0.333,0,0.625,0.114,0.875,0.344c0.25,0.229,0.375,0.521,0.375,0.874c0,0.458-0.271,0.843-0.812,1.155 c-0.812,0.458-1.614,0.802-2.404,1.03c-0.792,0.229-1.811,0.344-3.06,0.344C87.08,43.517,85.097,42.793,83.671,41.347z M93.616,33.931c-0.062-1.02-0.328-1.874-0.796-2.561c-0.468-0.687-1.046-1.191-1.733-1.515c-0.687-0.322-1.384-0.484-2.092-0.484 c-0.708,0-1.405,0.162-2.092,0.484c-0.687,0.323-1.259,0.828-1.717,1.515s-0.718,1.541-0.78,2.561H93.616z"></path> <path id="XMLID_15_" fill="#FFFFFF" d="M100.58,42.954c-0.271-0.271-0.406-0.604-0.406-0.999V28.56 c0-0.396,0.135-0.734,0.406-1.015c0.27-0.281,0.604-0.421,0.998-0.421s0.734,0.141,1.016,0.421c0.281,0.281,0.422,0.62,0.422,1.015 v1.28c0.789-0.874,1.643-1.571,2.559-2.092c0.916-0.52,2-0.781,3.248-0.781c1.145,0,2.139,0.271,2.982,0.812 c0.842,0.542,1.488,1.28,1.936,2.217c0.447,0.937,0.672,1.967,0.672,3.091v8.868c0,0.396-0.141,0.729-0.422,0.999 s-0.619,0.406-1.016,0.406c-0.395,0-0.729-0.136-0.998-0.406c-0.271-0.271-0.406-0.604-0.406-0.999v-8.556 c0-2.539-1.145-3.809-3.436-3.809c-1.041,0-1.973,0.271-2.793,0.812c-0.824,0.542-1.6,1.27-2.326,2.186v9.367 c0,0.396-0.141,0.729-0.422,0.999s-0.621,0.406-1.016,0.406S100.85,43.225,100.58,42.954z"></path> <path id="XMLID_17_" fill="#FFFFFF" d="M123.342,42.954c-0.271-0.271-0.406-0.604-0.406-0.999V21.69 c0-0.395,0.135-0.734,0.406-1.015c0.27-0.281,0.604-0.421,0.999-0.421c0.395,0,0.733,0.14,1.015,0.421 c0.281,0.281,0.422,0.62,0.422,1.015v8.149c0.79-0.874,1.644-1.571,2.56-2.092c0.916-0.52,1.999-0.781,3.248-0.781 c1.145,0,2.139,0.271,2.981,0.812c0.843,0.542,1.488,1.28,1.937,2.217c0.447,0.937,0.671,1.967,0.671,3.091v8.868 c0,0.396-0.141,0.729-0.422,0.999c-0.28,0.271-0.619,0.406-1.015,0.406s-0.729-0.136-0.999-0.406s-0.406-0.604-0.406-0.999v-8.556 c0-2.539-1.145-3.809-3.435-3.809c-1.041,0-1.973,0.271-2.794,0.812c-0.823,0.542-1.599,1.27-2.326,2.186v9.367 c0,0.396-0.141,0.729-0.422,0.999s-0.62,0.406-1.015,0.406C123.945,43.36,123.611,43.225,123.342,42.954z"></path> <path id="XMLID_19_" fill="#FFFFFF" d="M143.466,42.954c-0.781-0.374-1.4-0.921-1.858-1.639c-0.458-0.719-0.687-1.546-0.687-2.482 c0-1.541,0.608-2.769,1.826-3.685s3.003-1.374,5.355-1.374h3.778v-0.25c0-1.374-0.339-2.362-1.016-2.966 c-0.677-0.604-1.732-0.905-3.169-0.905c-0.791,0-1.494,0.062-2.107,0.187c-0.614,0.125-1.296,0.312-2.045,0.562 c-0.167,0.042-0.303,0.062-0.406,0.062c-0.312,0-0.583-0.114-0.812-0.343c-0.229-0.229-0.344-0.51-0.344-0.843 c0-0.562,0.271-0.957,0.812-1.187c1.77-0.749,3.57-1.124,5.402-1.124c1.436,0,2.648,0.292,3.638,0.875 c0.988,0.583,1.717,1.338,2.186,2.264c0.468,0.926,0.702,1.931,0.702,3.013v8.836c0,0.396-0.141,0.729-0.421,0.999 c-0.281,0.271-0.62,0.406-1.016,0.406s-0.729-0.136-0.999-0.406s-0.405-0.604-0.405-0.999v-0.812 c-1.541,1.582-3.497,2.373-5.87,2.373C145.094,43.517,144.246,43.329,143.466,42.954z M149.726,40.347 c0.854-0.447,1.572-1.004,2.155-1.67v-2.623h-3.404c-3.143,0-4.715,0.822-4.715,2.467c0,0.749,0.255,1.354,0.766,1.811 c0.51,0.459,1.358,0.688,2.545,0.688C147.987,41.019,148.872,40.795,149.726,40.347z"></path> <path id="XMLID_22_" fill="#FFFFFF" d="M162.715,42.518c-1.27-0.666-2.284-1.624-3.044-2.873c-0.761-1.249-1.14-2.717-1.14-4.402 c0-1.687,0.379-3.154,1.14-4.403c0.76-1.249,1.774-2.206,3.044-2.873c1.27-0.666,2.654-1,4.153-1c1.103,0,2.055,0.141,2.856,0.422 c0.802,0.281,1.546,0.64,2.232,1.077c0.417,0.271,0.625,0.635,0.625,1.093c0,0.312-0.12,0.599-0.359,0.859s-0.515,0.39-0.827,0.39 c-0.229,0-0.458-0.062-0.688-0.188c-0.687-0.354-1.274-0.609-1.764-0.765c-0.489-0.156-1.099-0.234-1.826-0.234 c-1.791,0-3.196,0.515-4.216,1.545c-1.021,1.031-1.53,2.389-1.53,4.075c0,1.686,0.51,3.044,1.53,4.074 c1.02,1.03,2.425,1.546,4.216,1.546c0.728,0,1.337-0.078,1.826-0.234s1.077-0.41,1.764-0.765c0.229-0.125,0.458-0.188,0.688-0.188 c0.312,0,0.588,0.13,0.827,0.391c0.239,0.26,0.359,0.546,0.359,0.858c0,0.458-0.208,0.822-0.625,1.093 c-0.687,0.438-1.431,0.796-2.232,1.077s-1.754,0.422-2.856,0.422C165.369,43.517,163.984,43.184,162.715,42.518z"></path> <path id="XMLID_24_" fill="#FFFFFF" d="M176.548,42.954c-0.271-0.271-0.406-0.604-0.406-0.999V21.69 c0-0.395,0.135-0.734,0.406-1.015c0.27-0.281,0.604-0.421,0.999-0.421c0.395,0,0.733,0.14,1.015,0.421 c0.281,0.281,0.422,0.62,0.422,1.015v12.771l7.431-6.869c0.312-0.27,0.625-0.406,0.937-0.406c0.479,0,0.828,0.136,1.047,0.406 c0.218,0.271,0.327,0.593,0.327,0.968c0,0.354-0.177,0.708-0.53,1.062l-4.496,4.028l5.651,7.494 c0.208,0.271,0.312,0.552,0.312,0.843c0,0.417-0.136,0.749-0.406,0.999s-0.614,0.375-1.03,0.375c-0.209,0-0.417-0.053-0.625-0.156 s-0.385-0.25-0.53-0.438l-5.371-7.306l-2.716,2.466v4.028c0,0.396-0.141,0.729-0.422,0.999s-0.62,0.406-1.015,0.406 C177.151,43.36,176.817,43.225,176.548,42.954z"></path> </g> <path id="XMLID_4_" opacity="0.82" fill="#EE3853" d="M113.052,43.923l-0.171-0.079c-1.293-0.599-1.856-2.134-1.256-3.427 l9.171-19.787c0.599-1.293,2.134-1.856,3.427-1.256l0.171,0.079c1.293,0.599,1.856,2.134,1.256,3.427l-9.171,19.787 C115.88,43.96,114.345,44.522,113.052,43.923z"></path> </svg>